<svg xmlns="http://www.w3.org/2000/svg" width="900" height="470" viewBox="0 0 900 470">
<rect width="100%" height="100%" fill="#ffffff"/>
<style>text{font-family:Arial,Helvetica,sans-serif;fill:#1c1f24}.title{font-size:22px;font-weight:700}.label{font-size:14px}.score{font-size:13px;font-weight:700}</style>
<text x="24" y="30" class="title">Top 10 neighbourhoods — balanced profile</text>
<text x="180" y="69" text-anchor="end" class="label">Binnenstad</text>
<rect x="190" y="55" width="619.1" height="22" rx="3" fill="#53657d"/>
<text x="817.1" y="71" class="score">93.8</text>
<text x="180" y="107" text-anchor="end" class="label">Boschstraatkwartier</text>
<rect x="190" y="93" width="616.4" height="22" rx="3" fill="#53657d"/>
<text x="814.4" y="109" class="score">93.4</text>
<text x="180" y="145" text-anchor="end" class="label">Randwyck</text>
<rect x="190" y="131" width="606.5" height="22" rx="3" fill="#53657d"/>
<text x="804.5" y="147" class="score">91.9</text>
<text x="180" y="183" text-anchor="end" class="label">Statenkwartier</text>
<rect x="190" y="169" width="598.6" height="22" rx="3" fill="#53657d"/>
<text x="796.6" y="185" class="score">90.7</text>
<text x="180" y="221" text-anchor="end" class="label">Sint Maartenspoort</text>
<rect x="190" y="207" width="554.4" height="22" rx="3" fill="#53657d"/>
<text x="752.4" y="223" class="score">84.0</text>
<text x="180" y="259" text-anchor="end" class="label">Kommelkwartier</text>
<rect x="190" y="245" width="552.4" height="22" rx="3" fill="#53657d"/>
<text x="750.4" y="261" class="score">83.7</text>
<text x="180" y="297" text-anchor="end" class="label">Jekerkwartier</text>
<rect x="190" y="283" width="516.1" height="22" rx="3" fill="#53657d"/>
<text x="714.1" y="299" class="score">78.2</text>
<text x="180" y="335" text-anchor="end" class="label">Wyck</text>
<rect x="190" y="321" width="513.5" height="22" rx="3" fill="#53657d"/>
<text x="711.5" y="337" class="score">77.8</text>
<text x="180" y="373" text-anchor="end" class="label">Brusselsepoort</text>
<rect x="190" y="359" width="499.6" height="22" rx="3" fill="#53657d"/>
<text x="697.6" y="375" class="score">75.7</text>
<text x="180" y="411" text-anchor="end" class="label">Wyckerpoort</text>
<rect x="190" y="397" width="473.9" height="22" rx="3" fill="#53657d"/>
<text x="671.9" y="413" class="score">71.8</text>
<text x="190" y="455" class="label">Suitability score (0–100)</text>
</svg>
